<svg xmlns="http://www.w3.org/2000/svg" viewBox="0 0 34.51 44.04"><defs><style>.cls-1{fill:#fff;}</style></defs><title>資產 2</title><g id="圖層_2" data-name="圖層 2"><g id="圖層_1-2" data-name="圖層 1"><path class="cls-1" d="M32.9,12.91a10.55,10.55,0,0,1-1.5,5.45,12.91,12.91,0,0,1-4.57,4.4,7.28,7.28,0,0,1,2.5,1.45A8.62,8.62,0,0,1,31,26.34a9.84,9.84,0,0,1,1,2.53,11.6,11.6,0,0,1,.32,2.67v6.37a8.38,8.38,0,0,0,.58,2.81A19.27,19.27,0,0,0,34.51,44H26.36a8.24,8.24,0,0,1-.77-1.58,9.22,9.22,0,0,1-.44-1.61A12.26,12.26,0,0,1,25,39.37c0-.47-.05-.88-.05-1.23v-6.7a6.05,6.05,0,0,0-.33-2c-.22-.66-3.61,1.11-4.09.59s1.9-3.28,1.1-3.61a7.58,7.58,0,0,0-2.9-.49H7.45V44H0V0H18.69a15.23,15.23,0,0,1,6.06,1.14,13.79,13.79,0,0,1,4.47,3,12.68,12.68,0,0,1,3.68,8.81ZM7.45,19.73H18.69a6.91,6.91,0,0,0,4.72-1.85,6.11,6.11,0,0,0,1.47-2.1,6.82,6.82,0,0,0,.53-2.71,7.24,7.24,0,0,0-.5-2.7A6.48,6.48,0,0,0,23.5,8.22,6.68,6.68,0,0,0,21.37,6.8a6.92,6.92,0,0,0-2.68-.52H7.45Z"/></g></g></svg>